<svg width="100" height="148" viewBox="0 0 100 148" fill="none" xmlns="http://www.w3.org/2000/svg">
<path d="M13.4421 80.6595C25.2133 58.8225 42.8313 42.5591 67.0078 32.498C28.709 62.3667 -0.138832 101.553 24.0377 148C5.38325 128.464 4.90376 104.326 13.4421 80.6595Z" fill="#E87383"/>
<path d="M0.0622597 31.9264C0.301823 29.6419 0.752022 27.3805 1.40797 25.1667C3.98491 24.9925 6.57404 25.2788 9.03371 26.0099C12.514 26.9674 15.9788 29.6541 18.7167 34.5846C19.7778 36.9596 20.4956 39.4534 20.8513 42.0017C20.9234 44.1795 20.7157 46.3574 20.2326 48.4899C19.7322 50.5972 18.8088 52.5992 17.5102 54.3922C17.6535 63.218 15.9518 71.9864 12.4986 80.2163C14.4566 71.8389 14.6352 63.1898 13.0245 54.7495C8.5078 51.1052 4.11489 46.7321 2.0267 41.6587C0.456425 38.6309 -0.221209 35.2737 0.0622597 31.9264Z" fill="#E87383"/>
<path d="M26.3583 9.26089C27.1995 7.10319 28.2343 5.01417 29.4519 3.01562C31.9981 3.44858 34.4298 4.33175 36.6136 5.61663C39.7072 7.33157 42.3368 10.7472 43.6361 16.1778C43.9911 18.7159 43.9911 21.2856 43.6361 23.8236C43.1382 25.9621 42.3698 28.0391 41.3468 30.0117C40.2929 31.9349 38.861 33.6602 37.124 35.0994C34.8542 43.6708 30.8211 51.7589 25.2446 58.9229C29.4269 51.2375 31.9537 42.8747 32.6847 34.2991C29.2972 29.7259 26.2345 24.4667 25.5849 19.0647C24.9063 15.7907 25.1731 12.4094 26.3583 9.26089Z" fill="#E87383"/>
<path d="M65.5382 3.32985C67.58 5.27345 68.8948 8.46039 68.7092 12.9764C68.4417 15.0412 67.88 17.0642 67.0386 18.993C66.1567 20.5663 65.0712 22.0348 63.8058 23.3661C62.5505 24.6751 61.0458 25.7602 59.3664 26.5673C55.6751 32.8745 50.7076 38.4683 44.7337 43.0451C49.7151 37.8174 53.55 31.7456 56.0253 25.1668C54.142 20.9554 53.3884 16.3859 53.8289 11.8474C54.0226 9.14307 54.9887 6.5345 56.6286 4.28736C57.7756 2.75784 59.0643 1.32332 60.4801 0C62.379 0.804212 64.0954 1.93417 65.5382 3.32985Z" fill="#E87383"/>
<path d="M24.1605 138.182C24.1747 129.364 26.0232 120.631 29.6052 112.458C29.1046 110.355 29.0312 108.184 29.3887 106.056C29.773 103.905 30.4324 101.803 31.3531 99.796C32.6787 97.5497 34.311 95.47 36.21 93.6079C40.7112 89.9064 44.9959 88.5631 48.5844 88.8346C51.1685 88.9741 53.6996 89.5709 56.04 90.5924C55.7844 92.8792 55.3134 95.141 54.6324 97.3522C53.6024 100.565 51.6706 103.469 49.033 105.77C45.0887 109.8 39.2727 112.415 33.6424 114.344C28.8462 121.651 25.6263 129.745 24.1605 138.182Z" fill="#E87383"/>
<path d="M17.6637 98.3084C22.3835 90.6409 28.6595 83.8864 36.148 78.415C36.8337 76.3383 37.9356 74.3992 39.3963 72.6985C40.8729 70.9973 42.5659 69.4666 44.4388 68.1395C46.7916 66.7941 49.3238 65.7372 51.9718 64.9955C57.8651 63.8236 62.3199 64.6096 65.3052 66.4246C67.4717 67.73 69.3508 69.403 70.8428 71.3551C69.3933 73.2274 67.7735 74.982 66.0013 76.6C63.3842 78.9205 60.1509 80.562 56.6277 81.359C51.0437 83.0596 44.5935 82.6738 38.6847 81.7305C30.581 85.9455 23.4415 91.5759 17.6637 98.3084Z" fill="#E87383"/>
<path d="M63.5099 47.7753C64.8842 46.3978 66.5198 45.2644 68.3359 44.4311C70.185 43.6096 72.1317 42.9909 74.1364 42.5876C76.5339 42.3281 78.9582 42.3665 81.3445 42.7019C86.4335 43.8023 89.62 45.946 91.2132 48.4184C92.3967 50.2229 93.1899 52.2226 93.5488 54.3063C91.6558 55.2746 89.6795 56.0967 87.64 56.7644C84.6481 57.6817 81.4484 57.8591 78.3592 57.2789C73.2702 56.693 68.3514 54.1777 64.0977 51.4195C56.0355 51.9163 48.155 53.8578 40.8956 57.136C47.71 52.6978 55.3891 49.5192 63.5099 47.7753Z" fill="#E87383"/>
<path d="M68.6618 31.7978C69.3312 29.1532 70.6906 26.7 72.6216 24.6522C74.002 23.2424 75.5599 21.9902 77.262 20.9222C79.3786 19.8618 81.6352 19.0595 83.9751 18.5355C89.1415 17.7924 92.9775 18.6784 95.4679 20.4363C97.2783 21.6704 98.8166 23.213 100 24.9809C98.6478 26.5275 97.152 27.9621 95.5297 29.2683C93.1335 31.1665 90.2353 32.4437 87.1306 32.9697C81.1754 34.4131 74.4159 33.2555 68.6618 31.7978Z" fill="#E87383"/>
</svg>
