<svg width="35" height="35" viewBox="0 0 35 35" fill="none" xmlns="http://www.w3.org/2000/svg">
<path d="M30.8984 35H4.10156C1.83983 35 0 33.1602 0 30.8984V4.10156C0 1.83983 1.83983 0 4.10156 0H30.8984C33.1602 0 35 1.83983 35 4.10156V30.8984C35 33.1602 33.1602 35 30.8984 35ZM4.10156 2.73438C3.34774 2.73438 2.73438 3.34774 2.73438 4.10156V30.8984C2.73438 31.6523 3.34774 32.2656 4.10156 32.2656H30.8984C31.6523 32.2656 32.2656 31.6523 32.2656 30.8984V4.10156C32.2656 3.34774 31.6523 2.73438 30.8984 2.73438H4.10156ZM29.4559 10.3458L27.4188 8.52142L14.7747 22.6422L7.43622 15.6663L5.55233 17.6479L14.9325 26.5651L29.4559 10.3458Z" fill="#E87383"/>
</svg>
