<svg width="60" height="60" viewBox="0 0 60 60" fill="none" xmlns="http://www.w3.org/2000/svg">
<path d="M36.3914 16.1011L0 46.3973H14.5208V59.6582L43.6853 20.1661L42.0493 16.9028L36.3914 16.1011Z" fill="#FFA90F"/>
<path d="M14.521 46.3973L40.131 16.6309L42.0495 16.9028L43.6854 20.1661L14.521 59.6582V46.3973Z" fill="#FF9A0B"/>
<path d="M54.1036 0.34289L44.5129 5.41722L34.9221 0.34289L36.7847 11.0134L29.0308 18.582L39.7321 20.127L44.5095 29.8447L49.3022 20.1236L60.0002 18.5871L52.2411 11.0134L54.1036 0.34289Z" fill="#FFC740"/>
<path d="M23.4189 18.2334C20.5111 18.2334 18.1455 20.5989 18.1455 23.5068V25.2646H14.6299V23.5068C14.6299 20.5989 12.2643 18.2334 9.35645 18.2334H7.59863V14.7178H9.35645C12.2643 14.7178 14.6299 12.3522 14.6299 9.44434V7.68652H18.1455V9.44434C18.1455 12.3522 20.5111 14.7178 23.4189 14.7178H25.1768V18.2334H23.4189Z" fill="#FFC740"/>
<path d="M48.0283 46.3584C45.1204 46.3584 42.7549 48.7239 42.7549 51.6318V53.3896H39.2393V51.6318C39.2393 48.7239 36.8737 46.3584 33.9658 46.3584H32.208V42.8428H33.9658C36.8737 42.8428 39.2393 40.4772 39.2393 37.5693V35.8115H42.7549V37.5693C42.7549 40.4772 45.1204 42.8428 48.0283 42.8428H49.7861V46.3584H48.0283Z" fill="#FFA90F"/>
<path d="M59.9999 18.5872L49.302 20.1236L44.5092 29.8447L39.7319 20.1271L37.4185 19.7932L54.1034 0.343012L52.2408 11.0135L59.9999 18.5872Z" fill="#FFA90F"/>
</svg>
