<svg width="60" height="60" viewBox="0 0 60 60" fill="none" xmlns="http://www.w3.org/2000/svg">
<path d="M42.6433 9.27231C42.8763 9.04526 42.982 8.71887 42.9266 8.39935L42.0894 3.5141C41.9511 2.70935 42.7966 2.09503 43.5203 2.47452L47.9062 4.78073C48.1946 4.93271 48.5374 4.93271 48.8245 4.78073L53.2107 2.47452C53.9349 2.09503 54.78 2.70935 54.6417 3.5141L54.5186 4.23324L53.8045 8.39935C53.7495 8.71887 53.8557 9.04571 54.0887 9.27231L57.6373 12.7312C58.2223 13.3015 57.8996 14.2953 57.0898 14.4139L52.1863 15.1257C51.8645 15.1724 51.5875 15.3743 51.4433 15.6654L49.2497 20.1099C48.889 20.8423 47.8435 20.8423 47.4814 20.1099L45.2878 15.6654C45.1449 15.3743 44.8666 15.1724 44.5453 15.1257L43.0296 14.906L39.6417 14.4139C38.8328 14.2953 38.5092 13.3011 39.0951 12.7312L42.6433 9.27231Z" fill="#FED370"/>
<path d="M42.6433 9.27157C42.8763 9.04452 42.9821 8.71814 42.9267 8.39862L42.0894 3.51336C41.9512 2.70862 42.7967 2.0943 43.5204 2.47378L47.9062 4.78C48.1946 4.93198 48.5375 4.93198 48.8245 4.78L53.2108 2.47378C53.935 2.0943 54.78 2.70862 54.6418 3.51336L54.5186 4.23251C46.8305 7.51193 43.9662 11.6121 43.0292 14.9053L39.6413 14.4132C38.8329 14.2946 38.5092 13.3004 39.0952 12.7304L42.6433 9.27157Z" fill="#FFB238"/>
<path d="M44.4491 34.852C44.6313 34.6748 44.7137 34.4199 44.6706 34.1699L44.016 30.3522C43.908 29.7228 44.5686 29.2426 45.1348 29.5396L48.5626 31.3419C48.7878 31.4604 49.056 31.4604 49.2803 31.3419L52.7085 29.5396C53.2743 29.2426 53.9349 29.7232 53.8268 30.3522L53.7307 30.9139L53.1727 34.1699C53.1292 34.4199 53.2125 34.6748 53.3942 34.852L56.1678 37.5555C56.6251 38.001 56.3729 38.7782 55.7403 38.8707L51.9074 39.4273C51.6561 39.4635 51.4396 39.6214 51.327 39.8489L49.6127 43.3225C49.3302 43.8951 48.5136 43.8951 48.2307 43.3225L46.5159 39.8489C46.4042 39.6214 46.1868 39.4635 45.9354 39.4273L44.7508 39.2552L42.1031 38.8707C41.4709 38.7782 41.2177 38.001 41.676 37.5555L44.4491 34.852Z" fill="#FED370"/>
<path d="M44.4494 34.8526C44.6316 34.6755 44.714 34.4205 44.671 34.1706L44.0164 30.3528C43.9083 29.7234 44.5689 29.2432 45.1351 29.5403L48.5629 31.3425C48.7881 31.4611 49.0563 31.4611 49.2807 31.3425L52.7088 29.5403C53.2746 29.2432 53.9352 29.7238 53.8272 30.3528L53.731 30.9145C47.722 33.4775 45.4835 36.6823 44.7511 39.2559L42.1034 38.8713C41.4712 38.7789 41.2181 38.002 41.6763 37.5562L44.4494 34.8526Z" fill="#FFB238"/>
<path d="M26.0156 4.15072C26.1556 4.01477 26.2188 3.81839 26.1859 3.62658L25.6828 0.693694C25.5999 0.210753 26.1076 -0.158204 26.542 0.0697622L29.1755 1.45404C29.3486 1.54513 29.5545 1.54513 29.7267 1.45404L32.3602 0.0697622C32.7946 -0.158204 33.3023 0.210753 33.2194 0.693694L33.1452 1.12537L32.7163 3.62658C32.6834 3.81839 32.7474 4.01477 32.8871 4.15072L35.0175 6.2276C35.3686 6.57 35.175 7.16647 34.6888 7.23788L31.7449 7.66497C31.5518 7.6929 31.3856 7.8142 31.2991 7.98907L29.9821 10.6574C29.7651 11.0973 29.1375 11.0973 28.9201 10.6574L27.6031 7.98907C27.5175 7.8142 27.3504 7.6929 27.1572 7.66497L26.2472 7.53314L24.2134 7.23788C23.7277 7.16647 23.5336 6.56954 23.8851 6.2276L26.0156 4.15072Z" fill="#FED370"/>
<path d="M26.0157 4.14981C26.1558 4.01386 26.219 3.81748 26.186 3.62567L25.6829 0.692782C25.6001 0.209842 26.1077 -0.159116 26.5422 0.0688505L29.1757 1.45313C29.3487 1.54422 29.5547 1.54422 29.7268 1.45313L32.3603 0.0688505C32.7947 -0.159116 33.3024 0.209842 33.2196 0.692782L33.1454 1.12445C28.5298 3.09329 26.81 5.55515 26.2474 7.53223L24.2135 7.23697C23.7278 7.16602 23.5337 6.56909 23.8853 6.22669L26.0157 4.14981Z" fill="#FFB238"/>
<path d="M16.1089 45.1471C16.3369 45.1471 16.5653 45.234 16.7397 45.408C17.0881 45.7563 17.0881 46.3212 16.7397 46.6696L3.67009 59.7387C3.32174 60.0871 2.75686 60.0871 2.4085 59.7387C2.06014 59.3908 2.06014 58.826 2.4085 58.4776L15.4781 45.408C15.6521 45.234 15.8805 45.1471 16.1089 45.1471Z" fill="#FFB238"/>
<path d="M41.938 19.3173C42.1664 19.3173 42.3944 19.4043 42.5688 19.5787C42.9172 19.9266 42.9172 20.4915 42.5688 20.8399L29.7317 33.6774C29.3834 34.0257 28.8185 34.0253 28.4701 33.6774C28.1218 33.329 28.1218 32.7641 28.4701 32.4158L41.3072 19.5787C41.4816 19.4043 41.7096 19.3173 41.938 19.3173Z" fill="#FFB238"/>
<path d="M37.1309 18.4367C37.3593 18.4367 37.5873 18.5236 37.7617 18.6976C38.11 19.046 38.11 19.6108 37.7617 19.9592L31.9353 25.7856C31.5869 26.134 31.022 26.134 30.6737 25.7856C30.3253 25.4372 30.3253 24.8724 30.6737 24.524L36.5001 18.6976C36.6745 18.5236 36.9029 18.4367 37.1309 18.4367Z" fill="#FED370"/>
<path d="M18.586 22.7771C18.8139 22.7771 19.0424 22.8641 19.2168 23.038C19.5651 23.3864 19.5651 23.9513 19.2168 24.2996L2.62923 40.8872C2.28087 41.2355 1.71599 41.2355 1.36763 40.8872C1.01928 40.5388 1.01928 39.9739 1.36763 39.626L17.9552 23.038C18.1296 22.8641 18.3575 22.7771 18.586 22.7771Z" fill="#FFB238"/>
<path d="M25.8574 15.5058C26.0859 15.5058 26.3138 15.5928 26.4882 15.7668C26.8366 16.1151 26.8366 16.68 26.4882 17.0284L22.2269 21.2897C21.8786 21.638 21.3137 21.6376 20.9653 21.2897C20.617 20.9413 20.617 20.3764 20.9653 20.0281L25.2266 15.7668C25.4011 15.5928 25.629 15.5058 25.8574 15.5058Z" fill="#FFB238"/>
<path d="M38.9746 34.0637C39.2031 34.0637 39.4315 34.1506 39.6054 34.3246C39.9538 34.6729 39.9538 35.2378 39.6054 35.5862L36.7888 38.4028C36.4405 38.7512 35.8756 38.7512 35.5277 38.4028C35.1793 38.0544 35.1793 37.4896 35.5277 37.1412L38.3443 34.3246C38.5182 34.1506 38.7467 34.0637 38.9746 34.0637Z" fill="#FFB238"/>
<path d="M27.4053 51.1206C27.6337 51.1206 27.8621 51.2075 28.0361 51.3815C28.3845 51.7299 28.3845 52.2947 28.0361 52.6431L24.0659 56.6137C23.7171 56.9621 23.1527 56.9621 22.8043 56.6137C22.456 56.2654 22.456 55.7005 22.8043 55.3521L26.7745 51.3815C26.9489 51.2075 27.1773 51.1206 27.4053 51.1206Z" fill="#FFB238"/>
<path d="M38.9746 39.5516C39.2031 39.5516 39.4315 39.6385 39.6054 39.8125C39.9538 40.1609 39.9538 40.7257 39.6054 41.0741L30.744 49.935C30.3961 50.2834 29.8313 50.2834 29.4829 49.935C29.1345 49.5871 29.1345 49.0222 29.4829 48.6739L38.3438 39.8125C38.5182 39.6385 38.7467 39.5516 38.9746 39.5516Z" fill="#FFB238"/>
<path d="M41.4424 44.7866C41.6704 44.7866 41.8988 44.8736 42.0732 45.0475C42.4216 45.3959 42.4216 45.9608 42.0732 46.3091L37.9314 50.451C37.583 50.7989 37.0181 50.7989 36.6698 50.451C36.3214 50.1026 36.3214 49.5378 36.6698 49.1894L40.8116 45.0475C40.9856 44.8736 41.214 44.7866 41.4424 44.7866Z" fill="#FFB238"/>
<path d="M20.3317 39.6791C20.4544 39.5597 20.5103 39.3875 20.481 39.2196L20.0397 36.6455C19.9669 36.2217 20.4123 35.8976 20.7941 36.0976L23.1049 37.313C23.2564 37.3931 23.4372 37.3931 23.5887 37.313L25.8995 36.0976C26.2808 35.8976 26.7262 36.2217 26.6535 36.6455L26.5885 37.0246L26.2122 39.2196C26.1833 39.388 26.2396 39.5597 26.3619 39.6791L28.2318 41.5015C28.5399 41.8023 28.3701 42.3259 27.9434 42.3882L25.3598 42.7636C25.19 42.7878 25.044 42.8945 24.9684 43.0478L23.8126 45.3893C23.6226 45.7752 23.0715 45.7752 22.881 45.3893L21.7252 43.0478C21.6496 42.8945 21.5032 42.7878 21.3338 42.7636L20.535 42.6477L18.7502 42.3882C18.324 42.3259 18.1537 41.8023 18.4622 41.5015L20.3317 39.6791Z" fill="#FED370"/>
<path d="M20.3315 39.6789C20.4542 39.5594 20.5101 39.3873 20.4808 39.2193L20.0395 36.6453C19.9667 36.2214 20.4121 35.8973 20.7939 36.0973L23.1047 37.3127C23.2562 37.3928 23.437 37.3928 23.5885 37.3127L25.8993 36.0973C26.2806 35.8973 26.726 36.2214 26.6533 36.6453L26.5882 37.0243C22.5375 38.7519 21.0287 40.9121 20.5348 42.6475L18.75 42.3879C18.3238 42.3257 18.1535 41.802 18.462 41.5012L20.3315 39.6789Z" fill="#FFB238"/>
<path d="M22.4961 11.2733C22.7241 11.2733 22.9525 11.3603 23.1269 11.5343C23.4753 11.8826 23.4753 12.4475 23.1269 12.7959L18.0196 17.9031C17.6713 18.251 17.1069 18.251 16.758 17.9031C16.4101 17.5548 16.4101 16.9899 16.758 16.6415L21.8653 11.5343C22.0393 11.3603 22.2677 11.2733 22.4961 11.2733Z" fill="#FFB238"/>
<path d="M20.6294 26.5999C20.8578 26.5999 21.0863 26.6868 21.2602 26.8612C21.6086 27.2091 21.6086 27.774 21.2602 28.1224L19.2172 30.1658C18.8689 30.5137 18.304 30.5137 17.9556 30.1658C17.6073 29.8175 17.6073 29.2526 17.9556 28.9042L19.9991 26.8612C20.173 26.6868 20.4015 26.5999 20.6294 26.5999Z" fill="#FED370"/>
<path d="M8.3168 48.9277C8.54523 48.9277 8.77365 49.0146 8.94806 49.1886C9.29596 49.5369 9.29596 50.1018 8.94806 50.4502L6.50085 52.8969C6.1525 53.2453 5.58762 53.2453 5.23926 52.8969C4.89136 52.5486 4.89136 51.9837 5.23926 51.6358L7.68646 49.1886C7.86041 49.0146 8.08884 48.9277 8.3168 48.9277Z" fill="#FED370"/>
<path d="M46.6366 51.5796C46.638 51.5796 46.6394 51.5796 46.6412 51.5796C47.1337 51.5823 47.5311 51.9833 47.5288 52.4759L47.5274 52.7871C47.5251 53.2797 47.1269 53.6807 46.6311 53.6747C46.1386 53.6725 45.7412 53.2714 45.7435 52.7789L45.7449 52.4676C45.7472 51.9764 46.1459 51.5796 46.6366 51.5796Z" fill="#FED370"/>
<path d="M46.6464 48.4117C46.6482 48.4117 46.6496 48.4117 46.651 48.4117C47.1435 48.4139 47.5409 48.8154 47.5386 49.308L47.5372 49.6192C47.5349 50.1104 47.1357 50.5068 46.645 50.5068H46.6409C46.1479 50.5045 45.7505 50.1031 45.7533 49.6105L45.7547 49.2993C45.7569 48.8081 46.1561 48.4117 46.6464 48.4117Z" fill="#FED370"/>
<path d="M44.9015 50.1454C44.9029 50.1454 44.9043 50.1454 44.9061 50.1454L45.2169 50.1468C45.7099 50.149 46.1073 50.5505 46.105 51.0431C46.1027 51.5342 45.7035 51.9307 45.2132 51.9307H45.2087L44.8974 51.9293C44.4048 51.927 44.0075 51.5255 44.0098 51.033C44.0121 50.5418 44.4108 50.1454 44.9015 50.1454Z" fill="#FED370"/>
<path d="M48.0694 50.1557C48.0708 50.1557 48.0722 50.1557 48.0736 50.1557L48.3848 50.1575C48.8774 50.1598 49.2752 50.5608 49.2724 51.0538C49.2702 51.545 48.871 51.9414 48.3807 51.9414H48.3761L48.0649 51.9396C47.5723 51.9373 47.175 51.5358 47.1773 51.0433C47.1796 50.5526 47.5787 50.1557 48.0694 50.1557Z" fill="#FED370"/>
<path d="M56.1922 23.8726C56.1936 23.8726 56.195 23.8726 56.1964 23.8726C56.6894 23.8748 57.0867 24.2763 57.084 24.7689L57.0826 25.0801C57.0803 25.5727 56.6752 25.9723 56.1863 25.9677C55.6937 25.9654 55.2964 25.564 55.2987 25.0714L55.3001 24.7602C55.3028 24.269 55.7015 23.8726 56.1922 23.8726Z" fill="#FFB238"/>
<path d="M56.202 20.7046C56.2034 20.7046 56.2048 20.7046 56.2062 20.7046C56.6992 20.7069 57.0965 21.1084 57.0942 21.6009L57.0929 21.9122C57.0906 22.4048 56.6919 22.8012 56.1966 22.7998C55.704 22.7975 55.3067 22.3965 55.309 21.904L55.3103 21.5927C55.3126 21.1015 55.7113 20.7046 56.202 20.7046Z" fill="#FFB238"/>
<path d="M54.4567 22.4388C54.458 22.4388 54.4594 22.4388 54.4608 22.4388L54.7721 22.4402C55.2646 22.4429 55.6624 22.8439 55.6597 23.3369C55.6574 23.8295 55.2554 24.2314 54.7634 24.2245L54.4521 24.2227C53.9595 24.2204 53.5622 23.8189 53.5645 23.3264C53.5668 22.8352 53.9659 22.4388 54.4567 22.4388Z" fill="#FFB238"/>
<path d="M57.6247 22.4491C57.626 22.4491 57.6274 22.4491 57.6288 22.4491L57.9401 22.4504C58.4331 22.4527 58.8304 22.8537 58.8281 23.3463C58.8258 23.8393 58.4239 24.238 57.9318 24.2343L57.6205 24.233C57.128 24.2307 56.7306 23.8292 56.7329 23.3367C56.7352 22.8455 57.1339 22.4491 57.6247 22.4491Z" fill="#FFB238"/>
<path d="M11.5126 13.1929C11.5139 13.1929 11.5149 13.1929 11.5167 13.1929C12.0092 13.1952 12.4066 13.5962 12.4043 14.0887L12.4029 14.4C12.4011 14.8912 12.0019 15.2881 11.5112 15.2881H11.5071C11.0145 15.2858 10.6167 14.8848 10.619 14.3918L10.6204 14.0805C10.6227 13.5898 11.0218 13.1929 11.5126 13.1929Z" fill="#FED370"/>
<path d="M11.5219 10.0249C11.5232 10.0249 11.5246 10.0249 11.5265 10.0249C12.019 10.0272 12.4163 10.4282 12.4141 10.9212L12.4127 11.2325C12.4099 11.7232 12.0112 12.1201 11.5205 12.1201H11.5164C11.0234 12.1174 10.626 11.7164 10.6283 11.2234L10.6302 10.9121C10.6324 10.4214 11.0312 10.0249 11.5219 10.0249Z" fill="#FED370"/>
<path d="M9.77651 11.7587C9.77835 11.7587 9.77972 11.7587 9.78109 11.7587L10.0924 11.76C10.5849 11.7623 10.9823 12.1638 10.98 12.6563C10.9777 13.1475 10.579 13.5439 10.0883 13.5439H10.0837L9.77239 13.5426C9.2803 13.5403 8.88251 13.1393 8.88479 12.6467C8.88708 12.1555 9.28625 11.7587 9.77651 11.7587Z" fill="#FED370"/>
<path d="M12.9445 11.7684C12.9459 11.7684 12.9472 11.7684 12.9491 11.7684L13.2603 11.7698C13.7529 11.7721 14.1502 12.1736 14.1479 12.6661C14.1452 13.1573 13.7465 13.5537 13.2558 13.5537H13.2516L12.9404 13.5523C12.4474 13.55 12.05 13.1486 12.0523 12.656C12.0551 12.1649 12.4538 11.7684 12.9445 11.7684Z" fill="#FED370"/>
</svg>
