<svg width="15" height="25" viewBox="0 0 15 25" fill="none" xmlns="http://www.w3.org/2000/svg">
<path d="M9.17322 24.9512H5.16186C4.49183 24.9512 3.94679 24.4072 3.94679 23.7385V14.7083H1.60648C0.936459 14.7083 0.391418 14.1642 0.391418 13.4956V9.6262C0.391418 8.95748 0.936459 8.41351 1.60648 8.41351H3.94679V6.47583C3.94679 4.55456 4.55127 2.91996 5.69467 1.74904C6.84323 0.572777 8.44835 -0.0488281 10.3365 -0.0488281L13.3958 -0.043869C14.0646 -0.0427246 14.6087 0.501251 14.6087 1.16882V4.76151C14.6087 5.43022 14.0639 5.9742 13.394 5.9742L11.3343 5.97496C10.7061 5.97496 10.5461 6.10066 10.5119 6.13918C10.4556 6.20308 10.3885 6.38371 10.3885 6.88248V8.41332H13.2392C13.4538 8.41332 13.6618 8.46615 13.8405 8.56571C14.2259 8.78067 14.4656 9.18713 14.4656 9.62639L14.464 13.4958C14.464 14.1642 13.919 14.7081 13.249 14.7081H10.3885V23.7385C10.3885 24.4072 9.84324 24.9512 9.17322 24.9512ZM5.41527 23.4856H8.91981V14.0522C8.91981 13.6057 9.28387 13.2425 9.73106 13.2425H12.9956L12.9969 9.87911H9.73087C9.28368 9.87911 8.91981 9.51595 8.91981 9.06944V6.88248C8.91981 6.30989 8.9781 5.65872 9.41115 5.1693C9.9344 4.57764 10.759 4.50935 11.3339 4.50935L13.1402 4.50859V1.42136L10.3353 1.41678C7.30093 1.41678 5.41527 3.35541 5.41527 6.47583V9.06944C5.41527 9.51576 5.0514 9.87911 4.60421 9.87911H1.85989V13.2425H4.60421C5.0514 13.2425 5.41527 13.6057 5.41527 14.0522V23.4856ZM13.3929 1.42174H13.3931H13.3929Z" fill="white"/>
</svg>
