<svg width="26" height="25" viewBox="0 0 26 25" fill="none" xmlns="http://www.w3.org/2000/svg">
<g clip-path="url(#clip0_16:1962)">
<path d="M19.218 0H7.75261C4.02108 0 0.985352 3.03573 0.985352 6.76726V18.2329C0.985352 21.9642 4.02108 25 7.75261 25H19.2182C22.9496 25 25.9853 21.9642 25.9853 18.2329V6.76726C25.9853 3.03573 22.9496 0 19.218 0V0ZM24.5197 18.2329C24.5197 21.1561 22.1414 23.5343 19.218 23.5343H7.75261C4.82922 23.5343 2.45096 21.1561 2.45096 18.2329V6.76726C2.45096 3.84387 4.82922 1.4656 7.75261 1.4656H19.2182C22.1414 1.4656 24.5197 3.84387 24.5197 6.76726V18.2329Z" fill="white"/>
<path d="M13.4854 5.66406C9.7161 5.66406 6.64966 8.7305 6.64966 12.4998C6.64966 16.2691 9.7161 19.3355 13.4854 19.3355C17.2547 19.3355 20.3211 16.2691 20.3211 12.4998C20.3211 8.7305 17.2547 5.66406 13.4854 5.66406ZM13.4854 17.8699C10.5244 17.8699 8.11526 15.4609 8.11526 12.4998C8.11526 9.53883 10.5244 7.12967 13.4854 7.12967C16.4465 7.12967 18.8555 9.53883 18.8555 12.4998C18.8555 15.4609 16.4465 17.8699 13.4854 17.8699Z" fill="white"/>
<path d="M20.4845 3.23633C19.3706 3.23633 18.4647 4.14251 18.4647 5.25621C18.4647 6.3701 19.3706 7.27628 20.4845 7.27628C21.5984 7.27628 22.5046 6.3701 22.5046 5.25621C22.5046 4.14232 21.5984 3.23633 20.4845 3.23633ZM20.4845 5.81048C20.179 5.81048 19.9303 5.56176 19.9303 5.25621C19.9303 4.95046 20.179 4.70193 20.4845 4.70193C20.7903 4.70193 21.039 4.95046 21.039 5.25621C21.039 5.56176 20.7903 5.81048 20.4845 5.81048Z" fill="white"/>
</g>
<defs>
<clipPath id="clip0_16:1962">
<rect width="25" height="25" fill="white" transform="translate(0.985352)"/>
</clipPath>
</defs>
</svg>
