<svg width="28" height="27" viewBox="0 0 28 27" fill="none" xmlns="http://www.w3.org/2000/svg">
<g clip-path="url(#clip0_16:1974)">
<path d="M14.6485 21.9375C18.5545 21.9375 17.1617 19.4648 17.4632 18.7537C17.4587 18.2227 17.4542 17.712 17.4722 17.4015C17.7197 17.4713 18.3036 17.7671 19.5096 18.9394C21.3715 20.8181 21.8474 21.9375 23.3515 21.9375H26.1201C26.9976 21.9375 27.4544 21.5741 27.6827 21.2693C27.9032 20.9745 28.1192 20.457 27.883 19.6515C27.2654 17.712 23.6631 14.3629 23.4392 14.0096C23.473 13.9444 23.527 13.8577 23.5551 13.8127H23.5529C24.2639 12.8734 26.9774 8.80762 27.3767 7.18087C27.3779 7.17862 27.379 7.17525 27.379 7.17188C27.595 6.42937 27.397 5.94788 27.1922 5.67563C26.884 5.26838 26.3935 5.0625 25.7309 5.0625H22.9622C22.0352 5.0625 21.3321 5.52937 20.9766 6.381C20.3815 7.89412 18.7097 11.0059 17.4565 12.1073C17.4182 10.5469 17.4441 9.3555 17.4644 8.47012C17.5049 6.74325 17.6354 5.0625 15.8432 5.0625H11.4917C10.369 5.0625 9.2946 6.28875 10.4579 7.7445C11.4749 9.02025 10.8235 9.73125 11.0429 13.2705C10.1879 12.3536 8.66685 9.8775 7.59135 6.71288C7.28985 5.85675 6.8331 5.06362 5.54723 5.06362H2.7786C1.65585 5.06362 0.985352 5.67562 0.985352 6.7005C0.985352 9.00225 6.08048 21.9375 14.6485 21.9375ZM5.54723 6.75112C5.79135 6.75112 5.8161 6.75113 5.99723 7.26525C7.0986 10.5086 9.5691 15.3079 11.3736 15.3079C12.7292 15.3079 12.7292 13.9185 12.7292 13.3954L12.7281 9.23063C12.6539 7.8525 12.1521 7.16625 11.8225 6.75L15.769 6.7545C15.7712 6.77363 15.7465 11.3614 15.7802 12.4729C15.7802 14.0512 17.0335 14.9558 18.9899 12.9758C21.0542 10.6459 22.4819 7.16288 22.5392 7.02113C22.6236 6.81863 22.6967 6.75 22.9622 6.75H25.7309H25.7421C25.741 6.75338 25.741 6.75675 25.7399 6.76012C25.4867 7.94137 22.9881 11.7056 22.1522 12.8745C22.1387 12.8925 22.1264 12.9116 22.114 12.9308C21.7461 13.5315 21.4469 14.1952 22.1646 15.129H22.1657C22.231 15.2078 22.4009 15.3923 22.6484 15.6488C23.4179 16.443 26.0571 19.1587 26.2911 20.2387C26.1359 20.2635 25.9671 20.2455 23.3515 20.2511C22.7946 20.2511 22.3592 19.4186 20.6976 17.7424C19.2036 16.2889 18.2339 15.6949 17.3507 15.6949C15.6362 15.6949 15.7611 17.0865 15.7769 18.7695C15.7825 20.5942 15.7712 20.0171 15.7836 20.1319C15.6835 20.1713 15.3966 20.25 14.6485 20.25C7.51035 20.25 2.86185 8.92013 2.68298 6.7545C2.74485 6.74888 3.59648 6.75225 5.54723 6.75112Z" fill="white"/>
</g>
<defs>
<clipPath id="clip0_16:1974">
<rect width="27" height="27" fill="white" transform="translate(0.985352)"/>
</clipPath>
</defs>
</svg>
