<svg width="28" height="27" viewBox="0 0 28 27" fill="none" xmlns="http://www.w3.org/2000/svg">
<g clip-path="url(#clip0_16:1971)">
<path d="M18.6412 12.2864L12.6763 9.02268C12.3333 8.83502 11.928 8.84202 11.5918 9.04122C11.2554 9.24062 11.0547 9.59287 11.0547 9.98384V16.4553C11.0547 16.8444 11.2541 17.1961 11.5883 17.3957C11.7627 17.4999 11.9562 17.5522 12.15 17.5522C12.3276 17.5522 12.5056 17.5083 12.6693 17.4202L18.6345 14.2127C18.9886 14.0221 19.2096 13.654 19.2112 13.2517C19.2127 12.8494 18.9943 12.4796 18.6412 12.2864ZM12.637 15.6412V10.8045L17.0951 13.2439L12.637 15.6412Z" fill="white"/>
<path d="M27.7867 8.09615L27.7854 8.08379C27.7626 7.86647 27.5349 5.93343 26.5952 4.95023C25.509 3.79378 24.2776 3.6533 23.6854 3.58594C23.6363 3.58037 23.5914 3.57522 23.5512 3.56987L23.5041 3.56492C19.9346 3.30537 14.544 3.26994 14.49 3.26974L14.4853 3.26953L14.4806 3.26974C14.4266 3.26994 9.03596 3.30537 5.43438 3.56492L5.3868 3.56987C5.34849 3.57502 5.30626 3.57976 5.26032 3.58511C4.67489 3.65268 3.45665 3.79337 2.36736 4.99163C1.47232 5.96433 1.21359 7.85596 1.18702 8.06855L1.18393 8.09615C1.17589 8.18658 0.985352 10.3394 0.985352 12.5007V14.5211C0.985352 16.6823 1.17589 18.8352 1.18393 18.9258L1.18537 18.9394C1.20824 19.1532 1.43565 21.0508 2.37107 22.0345C3.39238 23.1522 4.68375 23.3001 5.37836 23.3796C5.48815 23.3921 5.5827 23.4029 5.64718 23.4142L5.70959 23.4228C7.77055 23.6189 14.2323 23.7156 14.5063 23.7195L14.5145 23.7197L14.5228 23.7195C14.5768 23.7193 19.9672 23.6838 23.5366 23.4243L23.5838 23.4193C23.6289 23.4134 23.6796 23.408 23.7352 23.4022C24.3173 23.3404 25.529 23.2121 26.6032 22.0301C27.4983 21.0572 27.7572 19.1656 27.7836 18.9532L27.7867 18.9256C27.7947 18.835 27.9855 16.6823 27.9855 14.5211V12.5007C27.9852 10.3394 27.7947 8.18679 27.7867 8.09615ZM26.403 14.5211C26.403 16.5215 26.2283 18.5816 26.2119 18.7707C26.1447 19.2917 25.8718 20.4885 25.4357 20.9625C24.7633 21.7022 24.0726 21.7755 23.5683 21.8289C23.5074 21.8353 23.4509 21.8414 23.3998 21.8478C19.9474 22.0975 14.7603 22.1358 14.5213 22.1372C14.2534 22.1333 7.88611 22.0359 5.88798 21.8503C5.7856 21.8336 5.67498 21.8208 5.55839 21.8077C4.96699 21.7399 4.15744 21.6472 3.53492 20.9625L3.5203 20.9468C3.09183 20.5004 2.82672 19.3813 2.75936 18.7769C2.7468 18.6339 2.56758 16.5495 2.56758 14.5211V12.5007C2.56758 10.5026 2.74185 8.44469 2.75874 8.25167C2.83888 7.63802 3.11697 6.51371 3.53492 6.05929C4.22788 5.29712 4.95854 5.21266 5.4418 5.15684C5.48794 5.15148 5.531 5.14654 5.57075 5.14139C9.07345 4.89049 14.2978 4.8532 14.4853 4.85176C14.6728 4.853 19.8953 4.89049 23.3669 5.14139C23.4095 5.14674 23.4561 5.1521 23.5061 5.15787C24.0032 5.21452 24.7545 5.30021 25.4439 6.0356L25.4503 6.0424C25.8788 6.48879 26.1439 7.62752 26.2112 8.24405C26.2232 8.37898 26.403 10.468 26.403 12.5007V14.5211Z" fill="white"/>
</g>
<defs>
<clipPath id="clip0_16:1971">
<rect width="27" height="26.9999" fill="white" transform="translate(0.985352)"/>
</clipPath>
</defs>
</svg>
